<svg xmlns="http://www.w3.org/2000/svg" viewBox="0 0 512 512">
  <defs>
    <radialGradient id="sky" cx="50%" cy="30%" r="78%"><stop stop-color="#07546c"/><stop offset=".48" stop-color="#062a43"/><stop offset="1" stop-color="#010a1b"/></radialGradient>
    <linearGradient id="stout" x1="0" y1="0" x2="0" y2="1"><stop stop-color="#52230d"/><stop offset=".18" stop-color="#251005"/><stop offset="1" stop-color="#070504"/></linearGradient>
    <linearGradient id="cream" x1="0" y1="0" x2="0" y2="1"><stop stop-color="#fffbe4"/><stop offset=".72" stop-color="#f4d28a"/><stop offset="1" stop-color="#dca442"/></linearGradient>
    <linearGradient id="neon" x1="0" y1="0" x2="1" y2="1"><stop stop-color="#13f4ee"/><stop offset="1" stop-color="#008ed8"/></linearGradient>
    <filter id="blueGlow" x="-40%" y="-40%" width="180%" height="180%"><feGaussianBlur stdDeviation="9" result="b"/><feMerge><feMergeNode in="b"/><feMergeNode in="SourceGraphic"/></feMerge></filter>
    <filter id="goldGlow" x="-50%" y="-50%" width="200%" height="200%"><feGaussianBlur stdDeviation="6" result="b"/><feMerge><feMergeNode in="b"/><feMergeNode in="SourceGraphic"/></feMerge></filter>
  </defs>
  <rect width="512" height="512" fill="#010a1b"/>
  <rect x="8" y="8" width="496" height="496" rx="108" fill="url(#sky)" stroke="#0b7391" stroke-width="4"/>
  <circle cx="256" cy="225" r="180" fill="none" stroke="url(#neon)" stroke-width="15" filter="url(#blueGlow)"/>
  <circle cx="256" cy="225" r="157" fill="none" stroke="#9cfbff" stroke-width="2" opacity=".45"/>
  <g fill="#ffdd77" filter="url(#goldGlow)"><path d="M95 226l31 16-31 16z"/><path d="M417 226l-31 16 31 16z"/><rect x="99" y="286" width="54" height="10" rx="5" transform="rotate(-28 126 291)"/><rect x="359" y="286" width="54" height="10" rx="5" transform="rotate(28 386 291)"/><rect x="87" y="327" width="62" height="10" rx="5"/><rect x="363" y="327" width="62" height="10" rx="5"/></g>
  <path d="M169 126h174l-13 244H182z" fill="url(#stout)" stroke="#f0b744" stroke-width="9" stroke-linejoin="round"/>
  <path d="M184 151h144l-6 59H190z" fill="#7c3712" opacity=".48"/>
  <path d="M196 150c-5-37 21-61 58-51 18-31 61-29 79 5 30-4 45 18 38 46z" fill="url(#cream)" stroke="#fff0b7" stroke-width="8" stroke-linejoin="round"/>
  <path d="M199 149c21-20 50-22 73-7 24-24 57-20 80 7" fill="none" stroke="#fffdf2" stroke-width="13" stroke-linecap="round"/>
  <path d="M207 168c13 55 11 132 2 171" fill="none" stroke="#ffd77f" stroke-width="12" stroke-linecap="round" opacity=".33"/>
  <path d="M229 202c0-28 52-38 70-10 14 23-3 42-26 57-11 8-16 16-16 31" fill="none" stroke="#ffe184" stroke-width="25" stroke-linecap="round" stroke-linejoin="round" filter="url(#goldGlow)"/>
  <circle cx="257" cy="299" r="15" fill="#ffe184" filter="url(#goldGlow)"/>
  <g fill="#1fc877" stroke="#a8ffd0" stroke-width="3"><path d="M102 397c16-24 37-20 42 1 10-21 33-21 45 1-4 29-28 49-44 61-18-13-39-33-43-63z"/><path d="M323 398c16-24 37-20 42 1 10-21 33-21 45 1-4 29-28 49-44 61-18-13-39-33-43-63z"/></g>
  <path d="M144 416l-18 35M366 416l18 35" stroke="#43d58e" stroke-width="6" stroke-linecap="round"/>
  <text x="256" y="415" fill="#f8fbff" font-family="Georgia, serif" font-size="54" font-weight="700" letter-spacing="4" text-anchor="middle">PUB</text>
  <text x="256" y="465" fill="url(#neon)" font-family="Verdana, sans-serif" font-size="47" font-weight="900" letter-spacing="1" text-anchor="middle" filter="url(#blueGlow)">QUIZ</text>
</svg>
